<?xml version="1.0" encoding="UTF-8" standalone="no"?>
<!DOCTYPE svg PUBLIC "-//W3C//DTD SVG 1.1//EN"
 "http://www.w3.org/Graphics/SVG/1.1/DTD/svg11.dtd">
<!-- Generated by graphviz version 2.43.0 (0)
 -->
<!-- Title: Состояния Pages: 1 -->
<svg width="2588pt" height="2640pt"
 viewBox="0.00 0.00 2587.81 2640.00" xmlns="http://www.w3.org/2000/svg" xmlns:xlink="http://www.w3.org/1999/xlink">
<g id="graph0" class="graph" transform="scale(1 1) rotate(0) translate(4 2636)">
<title>Состояния</title>
<polygon fill="white" stroke="transparent" points="-4,4 -4,-2636 2583.81,-2636 2583.81,4 -4,4"/>
<text text-anchor="middle" x="1289.91" y="-7.8" font-family="Times,serif" font-size="14.00">Состояния</text>
<!-- unauthorized -->
<g id="node1" class="node">
<title>unauthorized</title>
<path fill="darksalmon" stroke="red" d="M1204.31,-2628C1204.31,-2628 1117.31,-2628 1117.31,-2628 1111.31,-2628 1105.31,-2622 1105.31,-2616 1105.31,-2616 1105.31,-2604 1105.31,-2604 1105.31,-2598 1111.31,-2592 1117.31,-2592 1117.31,-2592 1204.31,-2592 1204.31,-2592 1210.31,-2592 1216.31,-2598 1216.31,-2604 1216.31,-2604 1216.31,-2616 1216.31,-2616 1216.31,-2622 1210.31,-2628 1204.31,-2628"/>
<path fill="none" stroke="red" d="M1208.31,-2632C1208.31,-2632 1113.31,-2632 1113.31,-2632 1107.31,-2632 1101.31,-2626 1101.31,-2620 1101.31,-2620 1101.31,-2600 1101.31,-2600 1101.31,-2594 1107.31,-2588 1113.31,-2588 1113.31,-2588 1208.31,-2588 1208.31,-2588 1214.31,-2588 1220.31,-2594 1220.31,-2600 1220.31,-2600 1220.31,-2620 1220.31,-2620 1220.31,-2626 1214.31,-2632 1208.31,-2632"/>
<text text-anchor="start" x="1113.31" y="-2606.3" font-family="Times,serif" font-size="14.00">unauthorized</text>
</g>
<!-- authorized_initial -->
<g id="node2" class="node">
<title>authorized_initial</title>
<path fill="white" stroke="black" d="M1134.31,-2537C1134.31,-2537 1017.31,-2537 1017.31,-2537 1011.31,-2537 1005.31,-2531 1005.31,-2525 1005.31,-2525 1005.31,-2513 1005.31,-2513 1005.31,-2507 1011.31,-2501 1017.31,-2501 1017.31,-2501 1134.31,-2501 1134.31,-2501 1140.31,-2501 1146.31,-2507 1146.31,-2513 1146.31,-2513 1146.31,-2525 1146.31,-2525 1146.31,-2531 1140.31,-2537 1134.31,-2537"/>
<text text-anchor="start" x="1013.31" y="-2515.3" font-family="Times,serif" font-size="14.00">authorized_initial</text>
</g>
<!-- unauthorized&#45;&gt;authorized_initial -->
<g id="edge1" class="edge">
<title>unauthorized&#45;&gt;authorized_initial</title>
<path fill="none" stroke="black" d="M1132.36,-2587.85C1125.66,-2582.35 1118.75,-2576.21 1112.81,-2570 1105.62,-2562.47 1098.59,-2553.51 1092.62,-2545.27"/>
<polygon fill="black" stroke="black" points="1095.45,-2543.2 1086.83,-2537.04 1089.72,-2547.23 1095.45,-2543.2"/>
<text text-anchor="middle" x="1162.31" y="-2558.8" font-family="Times,serif" font-size="14.00">authorize_init</text>
</g>
<!-- authorized_selecting -->
<g id="node3" class="node">
<title>authorized_selecting</title>
<path fill="white" stroke="black" d="M1368.81,-2537C1368.81,-2537 1228.81,-2537 1228.81,-2537 1222.81,-2537 1216.81,-2531 1216.81,-2525 1216.81,-2525 1216.81,-2513 1216.81,-2513 1216.81,-2507 1222.81,-2501 1228.81,-2501 1228.81,-2501 1368.81,-2501 1368.81,-2501 1374.81,-2501 1380.81,-2507 1380.81,-2513 1380.81,-2513 1380.81,-2525 1380.81,-2525 1380.81,-2531 1374.81,-2537 1368.81,-2537"/>
<text text-anchor="start" x="1224.81" y="-2515.3" font-family="Times,serif" font-size="14.00">authorized_selecting</text>
</g>
<!-- unauthorized&#45;&gt;authorized_selecting -->
<g id="edge2" class="edge">
<title>unauthorized&#45;&gt;authorized_selecting</title>
<path fill="none" stroke="black" d="M1193.52,-2587.91C1214.67,-2574.26 1242.19,-2556.52 1263.79,-2542.59"/>
<polygon fill="black" stroke="black" points="1265.84,-2545.43 1272.35,-2537.07 1262.05,-2539.54 1265.84,-2545.43"/>
<text text-anchor="middle" x="1300.31" y="-2558.8" font-family="Times,serif" font-size="14.00">authorize_select</text>
</g>
<!-- work1 -->
<g id="node4" class="node">
<title>work1</title>
<path fill="white" stroke="black" d="M1005.31,-2450C1005.31,-2450 968.31,-2450 968.31,-2450 962.31,-2450 956.31,-2444 956.31,-2438 956.31,-2438 956.31,-2426 956.31,-2426 956.31,-2420 962.31,-2414 968.31,-2414 968.31,-2414 1005.31,-2414 1005.31,-2414 1011.31,-2414 1017.31,-2420 1017.31,-2426 1017.31,-2426 1017.31,-2438 1017.31,-2438 1017.31,-2444 1011.31,-2450 1005.31,-2450"/>
<text text-anchor="start" x="964.31" y="-2428.3" font-family="Times,serif" font-size="14.00">work1</text>
</g>
<!-- authorized_initial&#45;&gt;work1 -->
<g id="edge3" class="edge">
<title>authorized_initial&#45;&gt;work1</title>
<path fill="none" stroke="black" d="M1004.91,-2512.93C962.09,-2508.23 913.25,-2499.38 899.81,-2483 883.18,-2462.73 916.17,-2449.02 946.18,-2441.15"/>
<polygon fill="black" stroke="black" points="947.29,-2444.48 956.17,-2438.71 945.63,-2437.68 947.29,-2444.48"/>
<text text-anchor="middle" x="942.81" y="-2471.8" font-family="Times,serif" font-size="14.00">start_work1</text>
</g>
<!-- authorized_selecting&#45;&gt;work1 -->
<g id="edge4" class="edge">
<title>authorized_selecting&#45;&gt;work1</title>
<path fill="none" stroke="black" d="M1216.49,-2508.31C1131.13,-2498.22 1009.87,-2483.78 1008.81,-2483 1001.18,-2477.34 996.15,-2468.44 992.85,-2459.71"/>
<polygon fill="black" stroke="black" points="996.17,-2458.59 989.83,-2450.11 989.5,-2460.7 996.17,-2458.59"/>
<text text-anchor="middle" x="1084.81" y="-2471.8" font-family="Times,serif" font-size="14.00">start_selected_work1</text>
</g>
<!-- create_empty_kb -->
<g id="node5" class="node">
<title>create_empty_kb</title>
<path fill="white" stroke="black" d="M1454.31,-2363C1454.31,-2363 1341.31,-2363 1341.31,-2363 1335.31,-2363 1329.31,-2357 1329.31,-2351 1329.31,-2351 1329.31,-2339 1329.31,-2339 1329.31,-2333 1335.31,-2327 1341.31,-2327 1341.31,-2327 1454.31,-2327 1454.31,-2327 1460.31,-2327 1466.31,-2333 1466.31,-2339 1466.31,-2339 1466.31,-2351 1466.31,-2351 1466.31,-2357 1460.31,-2363 1454.31,-2363"/>
<text text-anchor="start" x="1337.31" y="-2341.3" font-family="Times,serif" font-size="14.00">create_empty_kb</text>
</g>
<!-- authorized_selecting&#45;&gt;create_empty_kb -->
<g id="edge5" class="edge">
<title>authorized_selecting&#45;&gt;create_empty_kb</title>
<path fill="none" stroke="black" d="M1336.13,-2500.86C1356.32,-2489.49 1379.57,-2472.49 1391.81,-2450 1404.67,-2426.38 1404.62,-2395.12 1402.31,-2373.06"/>
<polygon fill="black" stroke="black" points="1405.77,-2372.52 1401.05,-2363.04 1398.83,-2373.4 1405.77,-2372.52"/>
<text text-anchor="middle" x="1541.81" y="-2428.3" font-family="Times,serif" font-size="14.00">start_selected_work1_create_empty_kb</text>
</g>
<!-- load_kb -->
<g id="node6" class="node">
<title>load_kb</title>
<path fill="white" stroke="black" d="M988.31,-2363C988.31,-2363 941.31,-2363 941.31,-2363 935.31,-2363 929.31,-2357 929.31,-2351 929.31,-2351 929.31,-2339 929.31,-2339 929.31,-2333 935.31,-2327 941.31,-2327 941.31,-2327 988.31,-2327 988.31,-2327 994.31,-2327 1000.31,-2333 1000.31,-2339 1000.31,-2339 1000.31,-2351 1000.31,-2351 1000.31,-2357 994.31,-2363 988.31,-2363"/>
<text text-anchor="start" x="937.31" y="-2341.3" font-family="Times,serif" font-size="14.00">load_kb</text>
</g>
<!-- authorized_selecting&#45;&gt;load_kb -->
<g id="edge6" class="edge">
<title>authorized_selecting&#45;&gt;load_kb</title>
<path fill="none" stroke="black" d="M1245.8,-2500.9C1220.62,-2490.15 1192.28,-2473.73 1174.81,-2450 1156.26,-2424.8 1183.2,-2402.87 1160.81,-2381 1139.99,-2360.66 1061.75,-2351.94 1010.65,-2348.35"/>
<polygon fill="black" stroke="black" points="1010.71,-2344.84 1000.5,-2347.67 1010.24,-2351.83 1010.71,-2344.84"/>
<text text-anchor="middle" x="1281.31" y="-2428.3" font-family="Times,serif" font-size="14.00">start_selected_work1_load_kb</text>
</g>
<!-- work2 -->
<g id="node15" class="node">
<title>work2</title>
<path fill="white" stroke="black" d="M532.31,-1667C532.31,-1667 495.31,-1667 495.31,-1667 489.31,-1667 483.31,-1661 483.31,-1655 483.31,-1655 483.31,-1643 483.31,-1643 483.31,-1637 489.31,-1631 495.31,-1631 495.31,-1631 532.31,-1631 532.31,-1631 538.31,-1631 544.31,-1637 544.31,-1643 544.31,-1643 544.31,-1655 544.31,-1655 544.31,-1661 538.31,-1667 532.31,-1667"/>
<text text-anchor="start" x="491.31" y="-1645.3" font-family="Times,serif" font-size="14.00">work2</text>
</g>
<!-- authorized_selecting&#45;&gt;work2 -->
<g id="edge7" class="edge">
<title>authorized_selecting&#45;&gt;work2</title>
<path fill="none" stroke="black" d="M1216.65,-2507.59C1196.45,-2505.23 1174.87,-2502.87 1154.81,-2501 1082.51,-2494.26 504.81,-2505.62 504.81,-2433 504.81,-2433 504.81,-2433 504.81,-1735 504.81,-1715.64 507.15,-1693.95 509.44,-1677.32"/>
<polygon fill="black" stroke="black" points="512.94,-1677.6 510.92,-1667.2 506.01,-1676.59 512.94,-1677.6"/>
<text text-anchor="middle" x="580.81" y="-2080.3" font-family="Times,serif" font-size="14.00">start_selected_work2</text>
</g>
<!-- create_empty_sm -->
<g id="node16" class="node">
<title>create_empty_sm</title>
<path fill="white" stroke="black" d="M569.31,-1580C569.31,-1580 452.31,-1580 452.31,-1580 446.31,-1580 440.31,-1574 440.31,-1568 440.31,-1568 440.31,-1556 440.31,-1556 440.31,-1550 446.31,-1544 452.31,-1544 452.31,-1544 569.31,-1544 569.31,-1544 575.31,-1544 581.31,-1550 581.31,-1556 581.31,-1556 581.31,-1568 581.31,-1568 581.31,-1574 575.31,-1580 569.31,-1580"/>
<text text-anchor="start" x="448.31" y="-1558.3" font-family="Times,serif" font-size="14.00">create_empty_sm</text>
</g>
<!-- authorized_selecting&#45;&gt;create_empty_sm -->
<g id="edge8" class="edge">
<title>authorized_selecting&#45;&gt;create_empty_sm</title>
<path fill="none" stroke="black" d="M1216.69,-2507.06C1196.49,-2504.71 1174.9,-2502.49 1154.81,-2501 897.18,-2481.84 831.27,-2504.47 573.81,-2483 491.79,-2476.16 206.81,-2515.31 206.81,-2433 206.81,-2433 206.81,-2433 206.81,-1648 206.81,-1601.56 340.04,-1579.36 430.1,-1569.65"/>
<polygon fill="black" stroke="black" points="430.72,-1573.11 440.31,-1568.59 430,-1566.14 430.72,-1573.11"/>
<text text-anchor="middle" x="348.31" y="-2036.8" font-family="Times,serif" font-size="14.00">start_selected_work2_create_empty_sm</text>
</g>
<!-- load_sm -->
<g id="node17" class="node">
<title>load_sm</title>
<path fill="white" stroke="black" d="M875.81,-407C875.81,-407 825.81,-407 825.81,-407 819.81,-407 813.81,-401 813.81,-395 813.81,-395 813.81,-383 813.81,-383 813.81,-377 819.81,-371 825.81,-371 825.81,-371 875.81,-371 875.81,-371 881.81,-371 887.81,-377 887.81,-383 887.81,-383 887.81,-395 887.81,-395 887.81,-401 881.81,-407 875.81,-407"/>
<text text-anchor="start" x="821.81" y="-385.3" font-family="Times,serif" font-size="14.00">load_sm</text>
</g>
<!-- authorized_selecting&#45;&gt;load_sm -->
<g id="edge9" class="edge">
<title>authorized_selecting&#45;&gt;load_sm</title>
<path fill="none" stroke="black" d="M1381.02,-2518.35C1506.6,-2516.64 1731.81,-2503.72 1731.81,-2433 1731.81,-2433 1731.81,-2433 1731.81,-1952.5 1731.81,-1704.4 1528.81,-1680.6 1528.81,-1432.5 1528.81,-1432.5 1528.81,-1432.5 1528.81,-475 1528.81,-411.36 1052.51,-394.69 898.34,-390.96"/>
<polygon fill="black" stroke="black" points="898.31,-387.46 888.23,-390.72 898.15,-394.45 898.31,-387.46"/>
<text text-anchor="middle" x="1641.31" y="-1471.3" font-family="Times,serif" font-size="14.00">start_selected_work2_load_sm</text>
</g>
<!-- work3 -->
<g id="node35" class="node">
<title>work3</title>
<path fill="white" stroke="black" d="M1792.31,-320C1792.31,-320 1755.31,-320 1755.31,-320 1749.31,-320 1743.31,-314 1743.31,-308 1743.31,-308 1743.31,-296 1743.31,-296 1743.31,-290 1749.31,-284 1755.31,-284 1755.31,-284 1792.31,-284 1792.31,-284 1798.31,-284 1804.31,-290 1804.31,-296 1804.31,-296 1804.31,-308 1804.31,-308 1804.31,-314 1798.31,-320 1792.31,-320"/>
<text text-anchor="start" x="1751.31" y="-298.3" font-family="Times,serif" font-size="14.00">work3</text>
</g>
<!-- authorized_selecting&#45;&gt;work3 -->
<g id="edge10" class="edge">
<title>authorized_selecting&#45;&gt;work3</title>
<path fill="none" stroke="black" d="M1380.86,-2516.01C1481.72,-2512.68 1646.54,-2504.12 1703.81,-2483 1739.69,-2469.77 1773.81,-2471.23 1773.81,-2433 1773.81,-2433 1773.81,-2433 1773.81,-388 1773.81,-368.75 1773.81,-347.05 1773.81,-330.4"/>
<polygon fill="black" stroke="black" points="1777.31,-330.26 1773.81,-320.26 1770.31,-330.26 1777.31,-330.26"/>
<text text-anchor="middle" x="1852.31" y="-1427.8" font-family="Times,serif" font-size="14.00">start_selecting_work3</text>
</g>
<!-- configure_prototype -->
<g id="node36" class="node">
<title>configure_prototype</title>
<path fill="white" stroke="black" d="M2013.81,-233C2013.81,-233 1877.81,-233 1877.81,-233 1871.81,-233 1865.81,-227 1865.81,-221 1865.81,-221 1865.81,-209 1865.81,-209 1865.81,-203 1871.81,-197 1877.81,-197 1877.81,-197 2013.81,-197 2013.81,-197 2019.81,-197 2025.81,-203 2025.81,-209 2025.81,-209 2025.81,-221 2025.81,-221 2025.81,-227 2019.81,-233 2013.81,-233"/>
<text text-anchor="start" x="1873.81" y="-211.3" font-family="Times,serif" font-size="14.00">configure_prototype</text>
</g>
<!-- authorized_selecting&#45;&gt;configure_prototype -->
<g id="edge11" class="edge">
<title>authorized_selecting&#45;&gt;configure_prototype</title>
<path fill="none" stroke="black" d="M1381.09,-2515.61C1555.35,-2509.44 1945.81,-2489.33 1945.81,-2433 1945.81,-2433 1945.81,-2433 1945.81,-301 1945.81,-281.75 1945.81,-260.05 1945.81,-243.4"/>
<polygon fill="black" stroke="black" points="1949.31,-243.26 1945.81,-233.26 1942.31,-243.26 1949.31,-243.26"/>
<text text-anchor="middle" x="2099.31" y="-1384.3" font-family="Times,serif" font-size="14.00">start_selecting_work3_configure_prototype</text>
</g>
<!-- launch_functioning -->
<g id="node37" class="node">
<title>launch_functioning</title>
<path fill="white" stroke="black" d="M2176.81,-146C2176.81,-146 2048.81,-146 2048.81,-146 2042.81,-146 2036.81,-140 2036.81,-134 2036.81,-134 2036.81,-122 2036.81,-122 2036.81,-116 2042.81,-110 2048.81,-110 2048.81,-110 2176.81,-110 2176.81,-110 2182.81,-110 2188.81,-116 2188.81,-122 2188.81,-122 2188.81,-134 2188.81,-134 2188.81,-140 2182.81,-146 2176.81,-146"/>
<text text-anchor="start" x="2044.81" y="-124.3" font-family="Times,serif" font-size="14.00">launch_functioning</text>
</g>
<!-- authorized_selecting&#45;&gt;launch_functioning -->
<g id="edge12" class="edge">
<title>authorized_selecting&#45;&gt;launch_functioning</title>
<path fill="none" stroke="black" d="M1380.85,-2515.17C1616.86,-2506.48 2280.81,-2478.03 2280.81,-2433 2280.81,-2433 2280.81,-2433 2280.81,-214 2280.81,-172.84 2240.18,-151.61 2198.87,-140.66"/>
<polygon fill="black" stroke="black" points="2199.5,-137.21 2188.95,-138.22 2197.82,-144 2199.5,-137.21"/>
<text text-anchor="middle" x="2430.31" y="-1340.8" font-family="Times,serif" font-size="14.00">start_selecting_work3_launch_functioning</text>
</g>
<!-- work1&#45;&gt;create_empty_kb -->
<g id="edge13" class="edge">
<title>work1&#45;&gt;create_empty_kb</title>
<path fill="none" stroke="black" d="M1017.37,-2424.68C1080.58,-2411.61 1227.43,-2381.24 1319.08,-2362.28"/>
<polygon fill="black" stroke="black" points="1320.06,-2365.65 1329.15,-2360.2 1318.65,-2358.8 1320.06,-2365.65"/>
<text text-anchor="middle" x="1252.81" y="-2384.8" font-family="Times,serif" font-size="14.00">create_kb</text>
</g>
<!-- work1&#45;&gt;load_kb -->
<g id="edge14" class="edge">
<title>work1&#45;&gt;load_kb</title>
<path fill="none" stroke="black" d="M974,-2413.67C970.7,-2408.27 967.58,-2402.13 965.81,-2396 963.76,-2388.85 962.97,-2380.89 962.82,-2373.46"/>
<polygon fill="black" stroke="black" points="966.32,-2373.51 962.99,-2363.45 959.32,-2373.39 966.32,-2373.51"/>
<text text-anchor="middle" x="1016.81" y="-2384.8" font-family="Times,serif" font-size="14.00">load_ready_kb</text>
</g>
<!-- build_types -->
<g id="node7" class="node">
<title>build_types</title>
<path fill="white" stroke="black" d="M1256.81,-2276C1256.81,-2276 1182.81,-2276 1182.81,-2276 1176.81,-2276 1170.81,-2270 1170.81,-2264 1170.81,-2264 1170.81,-2252 1170.81,-2252 1170.81,-2246 1176.81,-2240 1182.81,-2240 1182.81,-2240 1256.81,-2240 1256.81,-2240 1262.81,-2240 1268.81,-2246 1268.81,-2252 1268.81,-2252 1268.81,-2264 1268.81,-2264 1268.81,-2270 1262.81,-2276 1256.81,-2276"/>
<text text-anchor="start" x="1178.81" y="-2254.3" font-family="Times,serif" font-size="14.00">build_types</text>
</g>
<!-- create_empty_kb&#45;&gt;build_types -->
<g id="edge15" class="edge">
<title>create_empty_kb&#45;&gt;build_types</title>
<path fill="none" stroke="black" d="M1361.79,-2326.8C1333.84,-2313.45 1294.91,-2294.86 1264.89,-2280.52"/>
<polygon fill="black" stroke="black" points="1266.01,-2277.18 1255.48,-2276.03 1262.99,-2283.5 1266.01,-2277.18"/>
<text text-anchor="middle" x="1359.81" y="-2297.8" font-family="Times,serif" font-size="14.00">build_types</text>
</g>
<!-- load_kb&#45;&gt;build_types -->
<g id="edge26" class="edge">
<title>load_kb&#45;&gt;build_types</title>
<path fill="none" stroke="black" d="M1000.54,-2332.09C1042.17,-2318.21 1111.58,-2295.08 1161.16,-2278.55"/>
<polygon fill="black" stroke="black" points="1162.42,-2281.82 1170.8,-2275.34 1160.2,-2275.18 1162.42,-2281.82"/>
<text text-anchor="middle" x="1179.31" y="-2297.8" font-family="Times,serif" font-size="14.00">load_kb_build_types</text>
</g>
<!-- build_basic_objects -->
<g id="node8" class="node">
<title>build_basic_objects</title>
<path fill="white" stroke="black" d="M1051.81,-2189C1051.81,-2189 921.81,-2189 921.81,-2189 915.81,-2189 909.81,-2183 909.81,-2177 909.81,-2177 909.81,-2165 909.81,-2165 909.81,-2159 915.81,-2153 921.81,-2153 921.81,-2153 1051.81,-2153 1051.81,-2153 1057.81,-2153 1063.81,-2159 1063.81,-2165 1063.81,-2165 1063.81,-2177 1063.81,-2177 1063.81,-2183 1057.81,-2189 1051.81,-2189"/>
<text text-anchor="start" x="917.81" y="-2167.3" font-family="Times,serif" font-size="14.00">build_basic_objects</text>
</g>
<!-- load_kb&#45;&gt;build_basic_objects -->
<g id="edge27" class="edge">
<title>load_kb&#45;&gt;build_basic_objects</title>
<path fill="none" stroke="black" d="M962.53,-2326.92C960.21,-2306.19 957.63,-2270.26 962.81,-2240 965.23,-2225.88 970.28,-2210.8 975.13,-2198.44"/>
<polygon fill="black" stroke="black" points="978.37,-2199.76 978.92,-2189.17 971.89,-2197.11 978.37,-2199.76"/>
<text text-anchor="middle" x="1062.31" y="-2254.3" font-family="Times,serif" font-size="14.00">load_kb_build_basic_objects</text>
</g>
<!-- build_intervals -->
<g id="node9" class="node">
<title>build_intervals</title>
<path fill="white" stroke="black" d="M1014.81,-1928C1014.81,-1928 916.81,-1928 916.81,-1928 910.81,-1928 904.81,-1922 904.81,-1916 904.81,-1916 904.81,-1904 904.81,-1904 904.81,-1898 910.81,-1892 916.81,-1892 916.81,-1892 1014.81,-1892 1014.81,-1892 1020.81,-1892 1026.81,-1898 1026.81,-1904 1026.81,-1904 1026.81,-1916 1026.81,-1916 1026.81,-1922 1020.81,-1928 1014.81,-1928"/>
<text text-anchor="start" x="912.81" y="-1906.3" font-family="Times,serif" font-size="14.00">build_intervals</text>
</g>
<!-- load_kb&#45;&gt;build_intervals -->
<g id="edge28" class="edge">
<title>load_kb&#45;&gt;build_intervals</title>
<path fill="none" stroke="black" d="M929.14,-2335.96C906.56,-2330.13 877.15,-2321.14 852.81,-2309 830.3,-2297.77 824.52,-2293.88 806.81,-2276 708.32,-2176.5 628.57,-2098.32 701.81,-1979 721.96,-1946.18 823.19,-1927.6 894.26,-1918.43"/>
<polygon fill="black" stroke="black" points="895.03,-1921.86 904.52,-1917.14 894.16,-1914.92 895.03,-1921.86"/>
<text text-anchor="middle" x="774.31" y="-2123.8" font-family="Times,serif" font-size="14.00">load_kb_build_intervals</text>
</g>
<!-- build_events -->
<g id="node10" class="node">
<title>build_events</title>
<path fill="white" stroke="black" d="M1025.31,-2102C1025.31,-2102 942.31,-2102 942.31,-2102 936.31,-2102 930.31,-2096 930.31,-2090 930.31,-2090 930.31,-2078 930.31,-2078 930.31,-2072 936.31,-2066 942.31,-2066 942.31,-2066 1025.31,-2066 1025.31,-2066 1031.31,-2066 1037.31,-2072 1037.31,-2078 1037.31,-2078 1037.31,-2090 1037.31,-2090 1037.31,-2096 1031.31,-2102 1025.31,-2102"/>
<text text-anchor="start" x="938.31" y="-2080.3" font-family="Times,serif" font-size="14.00">build_events</text>
</g>
<!-- load_kb&#45;&gt;build_events -->
<g id="edge29" class="edge">
<title>load_kb&#45;&gt;build_events</title>
<path fill="none" stroke="black" d="M928.94,-2331.67C876.31,-2311.3 787.03,-2266.87 812.81,-2207 833.87,-2158.11 886.5,-2125.31 927.86,-2106.15"/>
<polygon fill="black" stroke="black" points="929.34,-2109.32 937.03,-2102.03 926.48,-2102.93 929.34,-2109.32"/>
<text text-anchor="middle" x="888.31" y="-2210.8" font-family="Times,serif" font-size="14.00">load_kb_build_events</text>
</g>
<!-- build_rules -->
<g id="node11" class="node">
<title>build_rules</title>
<path fill="white" stroke="black" d="M1264.31,-2015C1264.31,-2015 1193.31,-2015 1193.31,-2015 1187.31,-2015 1181.31,-2009 1181.31,-2003 1181.31,-2003 1181.31,-1991 1181.31,-1991 1181.31,-1985 1187.31,-1979 1193.31,-1979 1193.31,-1979 1264.31,-1979 1264.31,-1979 1270.31,-1979 1276.31,-1985 1276.31,-1991 1276.31,-1991 1276.31,-2003 1276.31,-2003 1276.31,-2009 1270.31,-2015 1264.31,-2015"/>
<text text-anchor="start" x="1189.31" y="-1993.3" font-family="Times,serif" font-size="14.00">build_rules</text>
</g>
<!-- load_kb&#45;&gt;build_rules -->
<g id="edge30" class="edge">
<title>load_kb&#45;&gt;build_rules</title>
<path fill="none" stroke="black" d="M1000.51,-2342.39C1067.7,-2338.92 1210.24,-2329.35 1254.81,-2309 1307.2,-2285.09 1327.48,-2274.64 1350.81,-2222 1377.19,-2162.49 1527,-2321.98 1287.81,-2033 1284.07,-2028.47 1279.58,-2024.39 1274.76,-2020.75"/>
<polygon fill="black" stroke="black" points="1276.66,-2017.81 1266.44,-2015.04 1272.7,-2023.59 1276.66,-2017.81"/>
<text text-anchor="middle" x="1480.81" y="-2167.3" font-family="Times,serif" font-size="14.00">load_kb_build_rules</text>
</g>
<!-- build_types&#45;&gt;build_basic_objects -->
<g id="edge16" class="edge">
<title>build_types&#45;&gt;build_basic_objects</title>
<path fill="none" stroke="black" d="M1170.81,-2242.97C1166.1,-2241.87 1161.38,-2240.85 1156.81,-2240 1119.69,-2233.06 1013.35,-2249.83 987.81,-2222 982.28,-2215.97 980.69,-2207.61 980.88,-2199.44"/>
<polygon fill="black" stroke="black" points="984.37,-2199.71 981.92,-2189.4 977.41,-2198.99 984.37,-2199.71"/>
<text text-anchor="middle" x="1056.81" y="-2210.8" font-family="Times,serif" font-size="14.00">build_basic_objects</text>
</g>
<!-- build_basic_objects&#45;&gt;build_types -->
<g id="edge19" class="edge">
<title>build_basic_objects&#45;&gt;build_types</title>
<path fill="none" stroke="black" d="M1064.08,-2186.64C1084.6,-2191.82 1106.43,-2198.52 1125.81,-2207 1137,-2211.89 1138.21,-2215.96 1148.81,-2222 1156.79,-2226.55 1165.45,-2231.11 1173.87,-2235.36"/>
<polygon fill="black" stroke="black" points="1172.38,-2238.52 1182.89,-2239.84 1175.49,-2232.26 1172.38,-2238.52"/>
<text text-anchor="middle" x="1249.81" y="-2210.8" font-family="Times,serif" font-size="14.00">from_basic_objects_to_types</text>
</g>
<!-- build_basic_objects&#45;&gt;build_intervals -->
<g id="edge17" class="edge">
<title>build_basic_objects&#45;&gt;build_intervals</title>
<path fill="none" stroke="black" d="M909.55,-2157.44C847.39,-2142.81 764.01,-2111.91 723.81,-2048 696.16,-2004.02 684.21,-2012.58 792.81,-1946 823.24,-1927.35 861.78,-1918.42 894.76,-1914.24"/>
<polygon fill="black" stroke="black" points="895.27,-1917.7 904.8,-1913.08 894.47,-1910.75 895.27,-1917.7"/>
<text text-anchor="middle" x="776.81" y="-2036.8" font-family="Times,serif" font-size="14.00">build_intervals</text>
</g>
<!-- build_basic_objects&#45;&gt;build_events -->
<g id="edge18" class="edge">
<title>build_basic_objects&#45;&gt;build_events</title>
<path fill="none" stroke="black" d="M1064.07,-2165.6C1107.32,-2160.09 1148.56,-2147.71 1126.81,-2120 1116.7,-2107.11 1080.83,-2098.35 1047.56,-2092.82"/>
<polygon fill="black" stroke="black" points="1047.77,-2089.31 1037.34,-2091.2 1046.68,-2096.22 1047.77,-2089.31"/>
<text text-anchor="middle" x="1178.31" y="-2123.8" font-family="Times,serif" font-size="14.00">build_events</text>
</g>
<!-- build_intervals&#45;&gt;build_basic_objects -->
<g id="edge22" class="edge">
<title>build_intervals&#45;&gt;build_basic_objects</title>
<path fill="none" stroke="black" d="M1026.86,-1914.89C1109.91,-1920.65 1250.45,-1932.26 1269.81,-1946 1283.11,-1955.43 1281.73,-1963.22 1285.81,-1979 1304.36,-2050.61 1290.81,-2096.23 1227.81,-2135 1202.46,-2150.61 1132.05,-2159.64 1073.84,-2164.6"/>
<polygon fill="black" stroke="black" points="1073.55,-2161.11 1063.87,-2165.42 1074.12,-2168.09 1073.55,-2161.11"/>
<text text-anchor="middle" x="1405.81" y="-2036.8" font-family="Times,serif" font-size="14.00">from_intervals_to_basic_objects</text>
</g>
<!-- build_intervals&#45;&gt;build_events -->
<g id="edge21" class="edge">
<title>build_intervals&#45;&gt;build_events</title>
<path fill="none" stroke="black" d="M904.59,-1921.42C838.37,-1935.48 746.76,-1964.74 782.81,-2015 784.97,-2018 863.26,-2043.91 921.48,-2062.86"/>
<polygon fill="black" stroke="black" points="920.4,-2066.19 931,-2065.96 922.57,-2059.54 920.4,-2066.19"/>
<text text-anchor="middle" x="872.31" y="-1993.3" font-family="Times,serif" font-size="14.00">from_intervals_to_events</text>
</g>
<!-- build_intervals&#45;&gt;build_rules -->
<g id="edge20" class="edge">
<title>build_intervals&#45;&gt;build_rules</title>
<path fill="none" stroke="black" d="M972.91,-1928.33C978.48,-1939.6 987.39,-1953.55 999.81,-1961 1031.82,-1980.21 1130.14,-1972.04 1166.81,-1979 1168.29,-1979.28 1169.78,-1979.58 1171.28,-1979.89"/>
<polygon fill="black" stroke="black" points="1170.74,-1983.36 1181.27,-1982.14 1172.28,-1976.53 1170.74,-1983.36"/>
<text text-anchor="middle" x="1039.31" y="-1949.8" font-family="Times,serif" font-size="14.00">build_rules</text>
</g>
<!-- build_events&#45;&gt;build_basic_objects -->
<g id="edge25" class="edge">
<title>build_events&#45;&gt;build_basic_objects</title>
<path fill="none" stroke="black" d="M930.14,-2102.14C914.21,-2110.28 903.07,-2121.27 911.81,-2135 914.68,-2139.51 918.3,-2143.44 922.39,-2146.87"/>
<polygon fill="black" stroke="black" points="920.59,-2149.89 930.76,-2152.88 924.67,-2144.21 920.59,-2149.89"/>
<text text-anchor="middle" x="1017.31" y="-2123.8" font-family="Times,serif" font-size="14.00">from_events_to_basic_objects</text>
</g>
<!-- build_events&#45;&gt;build_intervals -->
<g id="edge24" class="edge">
<title>build_events&#45;&gt;build_intervals</title>
<path fill="none" stroke="black" d="M982.02,-2065.88C978.9,-2036 972.42,-1974.11 968.67,-1938.27"/>
<polygon fill="black" stroke="black" points="972.12,-1937.63 967.6,-1928.05 965.16,-1938.36 972.12,-1937.63"/>
<text text-anchor="middle" x="1066.31" y="-1993.3" font-family="Times,serif" font-size="14.00">from_events_to_intervals</text>
</g>
<!-- build_events&#45;&gt;build_rules -->
<g id="edge23" class="edge">
<title>build_events&#45;&gt;build_rules</title>
<path fill="none" stroke="black" d="M1037.37,-2080.22C1075.81,-2076.52 1127.99,-2067.92 1169.81,-2048 1177.19,-2044.49 1190.89,-2033.01 1203.24,-2021.93"/>
<polygon fill="black" stroke="black" points="1205.64,-2024.48 1210.68,-2015.17 1200.93,-2019.31 1205.64,-2024.48"/>
<text text-anchor="middle" x="1237.31" y="-2036.8" font-family="Times,serif" font-size="14.00">build_rules_2</text>
</g>
<!-- build_rules&#45;&gt;build_intervals -->
<g id="edge31" class="edge">
<title>build_rules&#45;&gt;build_intervals</title>
<path fill="none" stroke="black" d="M1181.06,-1982.88C1145.24,-1973.04 1102.3,-1961.22 1101.81,-1961 1090.69,-1955.99 1089.86,-1951.19 1078.81,-1946 1065.6,-1939.79 1051.01,-1934.33 1036.83,-1929.69"/>
<polygon fill="black" stroke="black" points="1037.68,-1926.29 1027.09,-1926.6 1035.57,-1932.96 1037.68,-1926.29"/>
<text text-anchor="middle" x="1185.81" y="-1949.8" font-family="Times,serif" font-size="14.00">from_rules_to_intervals</text>
</g>
<!-- build_rules&#45;&gt;build_events -->
<g id="edge32" class="edge">
<title>build_rules&#45;&gt;build_events</title>
<path fill="none" stroke="black" d="M1181.26,-2011.82C1176.4,-2012.99 1171.52,-2014.08 1166.81,-2015 1133.21,-2021.54 1042.57,-2014.42 1013.81,-2033 1005.11,-2038.63 998.56,-2047.76 993.85,-2056.68"/>
<polygon fill="black" stroke="black" points="990.67,-2055.22 989.58,-2065.76 997,-2058.2 990.67,-2055.22"/>
<text text-anchor="middle" x="1089.81" y="-2036.8" font-family="Times,serif" font-size="14.00">from_rules_to_events</text>
</g>
<!-- work1_completed_known_kb -->
<g id="node12" class="node">
<title>work1_completed_known_kb</title>
<path fill="white" stroke="black" d="M1405.31,-1928C1405.31,-1928 1210.31,-1928 1210.31,-1928 1204.31,-1928 1198.31,-1922 1198.31,-1916 1198.31,-1916 1198.31,-1904 1198.31,-1904 1198.31,-1898 1204.31,-1892 1210.31,-1892 1210.31,-1892 1405.31,-1892 1405.31,-1892 1411.31,-1892 1417.31,-1898 1417.31,-1904 1417.31,-1904 1417.31,-1916 1417.31,-1916 1417.31,-1922 1411.31,-1928 1405.31,-1928"/>
<text text-anchor="start" x="1206.31" y="-1906.3" font-family="Times,serif" font-size="14.00">work1_completed_known_kb</text>
</g>
<!-- build_rules&#45;&gt;work1_completed_known_kb -->
<g id="edge33" class="edge">
<title>build_rules&#45;&gt;work1_completed_known_kb</title>
<path fill="none" stroke="black" d="M1253.19,-1978.65C1259.89,-1973.35 1266.93,-1967.26 1272.81,-1961 1279.74,-1953.63 1286.37,-1944.81 1291.96,-1936.63"/>
<polygon fill="black" stroke="black" points="1294.99,-1938.4 1297.58,-1928.12 1289.15,-1934.54 1294.99,-1938.4"/>
<text text-anchor="middle" x="1399.81" y="-1949.8" font-family="Times,serif" font-size="14.00">complete_work1_with_known_kb</text>
</g>
<!-- work1_completed_unknown_kb -->
<g id="node13" class="node">
<title>work1_completed_unknown_kb</title>
<path fill="white" stroke="black" d="M1284.31,-1841C1284.31,-1841 1071.31,-1841 1071.31,-1841 1065.31,-1841 1059.31,-1835 1059.31,-1829 1059.31,-1829 1059.31,-1817 1059.31,-1817 1059.31,-1811 1065.31,-1805 1071.31,-1805 1071.31,-1805 1284.31,-1805 1284.31,-1805 1290.31,-1805 1296.31,-1811 1296.31,-1817 1296.31,-1817 1296.31,-1829 1296.31,-1829 1296.31,-1835 1290.31,-1841 1284.31,-1841"/>
<text text-anchor="start" x="1067.31" y="-1819.3" font-family="Times,serif" font-size="14.00">work1_completed_unknown_kb</text>
</g>
<!-- build_rules&#45;&gt;work1_completed_unknown_kb -->
<g id="edge34" class="edge">
<title>build_rules&#45;&gt;work1_completed_unknown_kb</title>
<path fill="none" stroke="black" d="M1276.48,-1995.76C1366.2,-1994.35 1548.69,-1986.56 1519.81,-1946 1505.63,-1926.08 1488.95,-1940.3 1467.81,-1928 1446.85,-1915.81 1447.47,-1904.71 1426.81,-1892 1393.36,-1871.41 1382.41,-1870.41 1344.81,-1859 1325.2,-1853.05 1304,-1847.76 1283.49,-1843.21"/>
<polygon fill="black" stroke="black" points="1284,-1839.74 1273.49,-1841.03 1282.51,-1846.58 1284,-1839.74"/>
<text text-anchor="middle" x="1592.81" y="-1906.3" font-family="Times,serif" font-size="14.00">complete_work1_with_unknown_kb</text>
</g>
<!-- work1_completed_known_kb&#45;&gt;work1_completed_unknown_kb -->
<g id="edge35" class="edge">
<title>work1_completed_known_kb&#45;&gt;work1_completed_unknown_kb</title>
<path fill="none" stroke="black" d="M1214.87,-1891.92C1198.17,-1887.01 1184.31,-1881.04 1178.81,-1874 1173.91,-1867.72 1172.39,-1859.52 1172.47,-1851.57"/>
<polygon fill="black" stroke="black" points="1175.97,-1851.73 1173.33,-1841.47 1168.99,-1851.14 1175.97,-1851.73"/>
<text text-anchor="middle" x="1259.81" y="-1862.8" font-family="Times,serif" font-size="14.00">error_found_known_kb</text>
</g>
<!-- finish_work1 -->
<g id="node14" class="node">
<title>finish_work1</title>
<path fill="white" stroke="black" d="M1155.31,-1754C1155.31,-1754 1072.31,-1754 1072.31,-1754 1066.31,-1754 1060.31,-1748 1060.31,-1742 1060.31,-1742 1060.31,-1730 1060.31,-1730 1060.31,-1724 1066.31,-1718 1072.31,-1718 1072.31,-1718 1155.31,-1718 1155.31,-1718 1161.31,-1718 1167.31,-1724 1167.31,-1730 1167.31,-1730 1167.31,-1742 1167.31,-1742 1167.31,-1748 1161.31,-1754 1155.31,-1754"/>
<text text-anchor="start" x="1068.31" y="-1732.3" font-family="Times,serif" font-size="14.00">finish_work1</text>
</g>
<!-- work1_completed_known_kb&#45;&gt;finish_work1 -->
<g id="edge36" class="edge">
<title>work1_completed_known_kb&#45;&gt;finish_work1</title>
<path fill="none" stroke="black" d="M1328.98,-1891.66C1333.78,-1886.53 1338.22,-1880.52 1340.81,-1874 1357.54,-1831.87 1370.33,-1806.41 1340.81,-1772 1320.14,-1747.89 1237.31,-1740.24 1177.68,-1737.89"/>
<polygon fill="black" stroke="black" points="1177.7,-1734.39 1167.58,-1737.53 1177.45,-1741.38 1177.7,-1734.39"/>
<text text-anchor="middle" x="1461.81" y="-1819.3" font-family="Times,serif" font-size="14.00">finish_work2_from_known_kb</text>
</g>
<!-- work1_completed_unknown_kb&#45;&gt;finish_work1 -->
<g id="edge37" class="edge">
<title>work1_completed_unknown_kb&#45;&gt;finish_work1</title>
<path fill="none" stroke="black" d="M1132.89,-1804.89C1125.7,-1800.18 1119.2,-1794.29 1114.81,-1787 1110.81,-1780.35 1109.48,-1772.25 1109.45,-1764.52"/>
<polygon fill="black" stroke="black" points="1112.95,-1764.58 1110.07,-1754.39 1105.96,-1764.15 1112.95,-1764.58"/>
<text text-anchor="middle" x="1227.81" y="-1775.8" font-family="Times,serif" font-size="14.00">finish_work2_from_unknown_kb</text>
</g>
<!-- finish_work1&#45;&gt;work2 -->
<g id="edge38" class="edge">
<title>finish_work1&#45;&gt;work2</title>
<path fill="none" stroke="black" d="M1060.3,-1727.42C941.89,-1710.64 659.84,-1670.69 554.46,-1655.76"/>
<polygon fill="black" stroke="black" points="554.93,-1652.29 544.53,-1654.35 553.94,-1659.22 554.93,-1652.29"/>
<text text-anchor="middle" x="892.81" y="-1688.8" font-family="Times,serif" font-size="14.00">start_work2</text>
</g>
<!-- work2&#45;&gt;create_empty_sm -->
<g id="edge39" class="edge">
<title>work2&#45;&gt;create_empty_sm</title>
<path fill="none" stroke="black" d="M513.21,-1630.8C512.8,-1619.16 512.25,-1603.55 511.78,-1590.24"/>
<polygon fill="black" stroke="black" points="515.27,-1590.05 511.42,-1580.18 508.28,-1590.29 515.27,-1590.05"/>
<text text-anchor="middle" x="549.31" y="-1601.8" font-family="Times,serif" font-size="14.00">create_sm</text>
</g>
<!-- work2&#45;&gt;load_sm -->
<g id="edge40" class="edge">
<title>work2&#45;&gt;load_sm</title>
<path fill="none" stroke="black" d="M544.4,-1648.33C699.82,-1649.59 1394.81,-1650.35 1394.81,-1563 1394.81,-1563 1394.81,-1563 1394.81,-475 1394.81,-424.97 1031.08,-399.93 898.46,-392.46"/>
<polygon fill="black" stroke="black" points="898.38,-388.95 888.21,-391.89 898,-395.94 898.38,-388.95"/>
<text text-anchor="middle" x="1447.81" y="-1036.3" font-family="Times,serif" font-size="14.00">load_ready_sm</text>
</g>
<!-- define_resource_types -->
<g id="node18" class="node">
<title>define_resource_types</title>
<path fill="white" stroke="black" d="M586.31,-1493C586.31,-1493 435.31,-1493 435.31,-1493 429.31,-1493 423.31,-1487 423.31,-1481 423.31,-1481 423.31,-1469 423.31,-1469 423.31,-1463 429.31,-1457 435.31,-1457 435.31,-1457 586.31,-1457 586.31,-1457 592.31,-1457 598.31,-1463 598.31,-1469 598.31,-1469 598.31,-1481 598.31,-1481 598.31,-1487 592.31,-1493 586.31,-1493"/>
<text text-anchor="start" x="431.31" y="-1471.3" font-family="Times,serif" font-size="14.00">define_resource_types</text>
</g>
<!-- create_empty_sm&#45;&gt;define_resource_types -->
<g id="edge41" class="edge">
<title>create_empty_sm&#45;&gt;define_resource_types</title>
<path fill="none" stroke="black" d="M510.81,-1543.8C510.81,-1532.16 510.81,-1516.55 510.81,-1503.24"/>
<polygon fill="black" stroke="black" points="514.31,-1503.18 510.81,-1493.18 507.31,-1503.18 514.31,-1503.18"/>
<text text-anchor="middle" x="590.31" y="-1514.8" font-family="Times,serif" font-size="14.00">define_resource_types</text>
</g>
<!-- load_sm&#45;&gt;define_resource_types -->
<g id="edge52" class="edge">
<title>load_sm&#45;&gt;define_resource_types</title>
<path fill="none" stroke="black" d="M887.92,-392.93C966.76,-400.17 1143.81,-422.3 1143.81,-475 1143.81,-1389 1143.81,-1389 1143.81,-1389 1143.81,-1442.33 786.3,-1463.51 608.64,-1470.74"/>
<polygon fill="black" stroke="black" points="608.35,-1467.25 598.5,-1471.15 608.63,-1474.25 608.35,-1467.25"/>
<text text-anchor="middle" x="1255.31" y="-949.3" font-family="Times,serif" font-size="14.00">load_sm_define_resource_types</text>
</g>
<!-- build_resources -->
<g id="node19" class="node">
<title>build_resources</title>
<path fill="white" stroke="black" d="M456.31,-1406C456.31,-1406 351.31,-1406 351.31,-1406 345.31,-1406 339.31,-1400 339.31,-1394 339.31,-1394 339.31,-1382 339.31,-1382 339.31,-1376 345.31,-1370 351.31,-1370 351.31,-1370 456.31,-1370 456.31,-1370 462.31,-1370 468.31,-1376 468.31,-1382 468.31,-1382 468.31,-1394 468.31,-1394 468.31,-1400 462.31,-1406 456.31,-1406"/>
<text text-anchor="start" x="347.31" y="-1384.3" font-family="Times,serif" font-size="14.00">build_resources</text>
</g>
<!-- load_sm&#45;&gt;build_resources -->
<g id="edge53" class="edge">
<title>load_sm&#45;&gt;build_resources</title>
<path fill="none" stroke="black" d="M887.89,-394.5C958.62,-404.13 1105.81,-429.62 1105.81,-475 1105.81,-823.5 1105.81,-823.5 1105.81,-823.5 1105.81,-851.1 1112.28,-865.48 1091.81,-884 1045.3,-926.1 995.61,-857.08 951.81,-902 895.07,-960.2 955.26,-1199.73 906.81,-1265 866.91,-1318.77 846.63,-1328.81 783.81,-1352 729.62,-1372.01 572.91,-1381 478.52,-1384.7"/>
<polygon fill="black" stroke="black" points="478.31,-1381.2 468.45,-1385.08 478.58,-1388.2 478.31,-1381.2"/>
<text text-anchor="middle" x="1040.81" y="-905.8" font-family="Times,serif" font-size="14.00">load_sm_build_resources</text>
</g>
<!-- define_events_and_laws -->
<g id="node20" class="node">
<title>define_events_and_laws</title>
<path fill="white" stroke="black" d="M447.81,-1232C447.81,-1232 285.81,-1232 285.81,-1232 279.81,-1232 273.81,-1226 273.81,-1220 273.81,-1220 273.81,-1208 273.81,-1208 273.81,-1202 279.81,-1196 285.81,-1196 285.81,-1196 447.81,-1196 447.81,-1196 453.81,-1196 459.81,-1202 459.81,-1208 459.81,-1208 459.81,-1220 459.81,-1220 459.81,-1226 453.81,-1232 447.81,-1232"/>
<text text-anchor="start" x="281.81" y="-1210.3" font-family="Times,serif" font-size="14.00">define_events_and_laws</text>
</g>
<!-- load_sm&#45;&gt;define_events_and_laws -->
<g id="edge54" class="edge">
<title>load_sm&#45;&gt;define_events_and_laws</title>
<path fill="none" stroke="black" d="M856.93,-407.01C862.48,-423.99 869.81,-450.96 869.81,-475 869.81,-736.5 869.81,-736.5 869.81,-736.5 869.81,-764.1 876.42,-778.63 855.81,-797 829.27,-820.66 720.77,-788.72 696.81,-815 681.84,-831.43 695.81,-842.77 695.81,-865 695.81,-1128 695.81,-1128 695.81,-1128 695.81,-1152.65 691.89,-1163.7 671.81,-1178 640.13,-1200.56 545.44,-1208.77 469.88,-1211.66"/>
<polygon fill="black" stroke="black" points="469.7,-1208.17 459.83,-1212.02 469.95,-1215.16 469.7,-1208.17"/>
<text text-anchor="middle" x="814.31" y="-818.8" font-family="Times,serif" font-size="14.00">load_sm_define_events_and_laws</text>
</g>
<!-- build_operations -->
<g id="node21" class="node">
<title>build_operations</title>
<path fill="white" stroke="black" d="M351.31,-1145C351.31,-1145 240.31,-1145 240.31,-1145 234.31,-1145 228.31,-1139 228.31,-1133 228.31,-1133 228.31,-1121 228.31,-1121 228.31,-1115 234.31,-1109 240.31,-1109 240.31,-1109 351.31,-1109 351.31,-1109 357.31,-1109 363.31,-1115 363.31,-1121 363.31,-1121 363.31,-1133 363.31,-1133 363.31,-1139 357.31,-1145 351.31,-1145"/>
<text text-anchor="start" x="236.31" y="-1123.3" font-family="Times,serif" font-size="14.00">build_operations</text>
</g>
<!-- load_sm&#45;&gt;build_operations -->
<g id="edge55" class="edge">
<title>load_sm&#45;&gt;build_operations</title>
<path fill="none" stroke="black" d="M844.7,-407.01C839.14,-423.99 831.81,-450.96 831.81,-475 831.81,-639 831.81,-639 831.81,-639 831.81,-671.91 833.33,-686 810.81,-710 765.8,-758 715.37,-711.67 671.81,-761 653.55,-781.69 657.81,-793.9 657.81,-821.5 657.81,-1041 657.81,-1041 657.81,-1041 657.81,-1098.93 479.92,-1117.41 373.54,-1123.28"/>
<polygon fill="black" stroke="black" points="373.28,-1119.79 363.48,-1123.81 373.65,-1126.78 373.28,-1119.79"/>
<text text-anchor="middle" x="763.81" y="-775.3" font-family="Times,serif" font-size="14.00">load_sm_build_operations</text>
</g>
<!-- build_functions -->
<g id="node22" class="node">
<title>build_functions</title>
<path fill="white" stroke="black" d="M651.31,-1319C651.31,-1319 550.31,-1319 550.31,-1319 544.31,-1319 538.31,-1313 538.31,-1307 538.31,-1307 538.31,-1295 538.31,-1295 538.31,-1289 544.31,-1283 550.31,-1283 550.31,-1283 651.31,-1283 651.31,-1283 657.31,-1283 663.31,-1289 663.31,-1295 663.31,-1295 663.31,-1307 663.31,-1307 663.31,-1313 657.31,-1319 651.31,-1319"/>
<text text-anchor="start" x="546.31" y="-1297.3" font-family="Times,serif" font-size="14.00">build_functions</text>
</g>
<!-- load_sm&#45;&gt;build_functions -->
<g id="edge56" class="edge">
<title>load_sm&#45;&gt;build_functions</title>
<path fill="none" stroke="black" d="M887.82,-405.41C914.49,-419.27 945.81,-442.47 945.81,-475 945.81,-780 945.81,-780 945.81,-780 945.81,-803.08 942.2,-809.39 931.81,-830 927.25,-839.05 922.17,-838.85 917.81,-848 905.95,-872.92 903.81,-880.9 903.81,-908.5 903.81,-1215 903.81,-1215 903.81,-1215 903.81,-1238.62 904.27,-1250.26 885.81,-1265 854.05,-1290.36 747.1,-1297.61 673.64,-1299.54"/>
<polygon fill="black" stroke="black" points="673.43,-1296.04 663.51,-1299.77 673.59,-1303.04 673.43,-1296.04"/>
<text text-anchor="middle" x="1004.81" y="-862.3" font-family="Times,serif" font-size="14.00">load_sm_build_functions</text>
</g>
<!-- define_resource_types&#45;&gt;build_resources -->
<g id="edge42" class="edge">
<title>define_resource_types&#45;&gt;build_resources</title>
<path fill="none" stroke="black" d="M423.26,-1459.98C401.56,-1454.65 382.56,-1447.71 375.81,-1439 370.03,-1431.53 372.39,-1422.71 377.66,-1414.58"/>
<polygon fill="black" stroke="black" points="380.61,-1416.49 383.97,-1406.45 375.07,-1412.2 380.61,-1416.49"/>
<text text-anchor="middle" x="432.31" y="-1427.8" font-family="Times,serif" font-size="14.00">build_resources</text>
</g>
<!-- build_resources&#45;&gt;define_resource_types -->
<g id="edge45" class="edge">
<title>build_resources&#45;&gt;define_resource_types</title>
<path fill="none" stroke="black" d="M462.32,-1406.06C471.98,-1410.75 481.28,-1416.64 488.81,-1424 495.35,-1430.38 500.08,-1439.04 503.44,-1447.35"/>
<polygon fill="black" stroke="black" points="500.15,-1448.54 506.78,-1456.81 506.75,-1446.21 500.15,-1448.54"/>
<text text-anchor="middle" x="648.31" y="-1427.8" font-family="Times,serif" font-size="14.00">from_resources_to_define_resource_types</text>
</g>
<!-- build_resources&#45;&gt;define_events_and_laws -->
<g id="edge44" class="edge">
<title>build_resources&#45;&gt;define_events_and_laws</title>
<path fill="none" stroke="black" d="M388.21,-1369.73C377.63,-1356.8 364.57,-1338.11 358.81,-1319 351.23,-1293.78 354.84,-1263.65 359.38,-1242.33"/>
<polygon fill="black" stroke="black" points="362.85,-1242.88 361.71,-1232.34 356.03,-1241.29 362.85,-1242.88"/>
<text text-anchor="middle" x="443.81" y="-1297.3" font-family="Times,serif" font-size="14.00">define_events_and_laws</text>
</g>
<!-- build_resources&#45;&gt;build_functions -->
<g id="edge43" class="edge">
<title>build_resources&#45;&gt;build_functions</title>
<path fill="none" stroke="black" d="M399.05,-1369.71C397.23,-1359.03 397.14,-1345.74 404.81,-1337 422.46,-1316.9 497.52,-1323.89 523.81,-1319 525.29,-1318.73 526.77,-1318.45 528.27,-1318.16"/>
<polygon fill="black" stroke="black" points="529.14,-1321.55 538.27,-1316.18 527.78,-1314.69 529.14,-1321.55"/>
<text text-anchor="middle" x="459.31" y="-1340.8" font-family="Times,serif" font-size="14.00">build_functions</text>
</g>
<!-- define_events_and_laws&#45;&gt;define_resource_types -->
<g id="edge51" class="edge">
<title>define_events_and_laws&#45;&gt;define_resource_types</title>
<path fill="none" stroke="black" d="M351.78,-1232.22C341.32,-1243.15 326.5,-1256.74 310.81,-1265 190.23,-1328.47 -67.19,-1244.71 16.81,-1352 65.11,-1413.69 283.65,-1448.46 413.32,-1464"/>
<polygon fill="black" stroke="black" points="412.93,-1467.48 423.27,-1465.18 413.75,-1460.53 412.93,-1467.48"/>
<text text-anchor="middle" x="189.81" y="-1340.8" font-family="Times,serif" font-size="14.00">from_events_and_laws_to_define_resource_types</text>
</g>
<!-- define_events_and_laws&#45;&gt;build_operations -->
<g id="edge49" class="edge">
<title>define_events_and_laws&#45;&gt;build_operations</title>
<path fill="none" stroke="black" d="M273.55,-1198.95C251.66,-1193.69 232.69,-1186.79 225.81,-1178 217.44,-1167.29 223.87,-1157.88 235.63,-1150.2"/>
<polygon fill="black" stroke="black" points="237.54,-1153.14 244.5,-1145.16 234.08,-1147.05 237.54,-1153.14"/>
<text text-anchor="middle" x="285.31" y="-1166.8" font-family="Times,serif" font-size="14.00">build_operations</text>
</g>
<!-- define_events_and_laws&#45;&gt;build_functions -->
<g id="edge50" class="edge">
<title>define_events_and_laws&#45;&gt;build_functions</title>
<path fill="none" stroke="black" d="M460.03,-1223.64C504.39,-1229.21 551.65,-1237.75 569.81,-1250 578.49,-1255.85 585.18,-1265.02 590.09,-1273.92"/>
<polygon fill="black" stroke="black" points="586.99,-1275.55 594.58,-1282.95 593.26,-1272.43 586.99,-1275.55"/>
<text text-anchor="middle" x="733.31" y="-1253.8" font-family="Times,serif" font-size="14.00">from_events_and_laws_to_build_functions</text>
</g>
<!-- build_operations&#45;&gt;build_resources -->
<g id="edge58" class="edge">
<title>build_operations&#45;&gt;build_resources</title>
<path fill="none" stroke="black" d="M228.14,-1144.46C154.65,-1165.7 52.96,-1206.93 94.81,-1265 153.98,-1347.09 217.91,-1296.89 310.81,-1337 329.56,-1345.09 349.6,-1355.61 366.25,-1364.9"/>
<polygon fill="black" stroke="black" points="364.7,-1368.05 375.13,-1369.92 368.15,-1361.95 364.7,-1368.05"/>
<text text-anchor="middle" x="223.31" y="-1253.8" font-family="Times,serif" font-size="14.00">from_operations_to_build_resources</text>
</g>
<!-- build_operations&#45;&gt;define_events_and_laws -->
<g id="edge57" class="edge">
<title>build_operations&#45;&gt;define_events_and_laws</title>
<path fill="none" stroke="black" d="M325.2,-1145.12C332.27,-1150.22 339.34,-1156.27 344.81,-1163 350.34,-1169.8 354.75,-1178.21 358.12,-1186.18"/>
<polygon fill="black" stroke="black" points="354.86,-1187.46 361.72,-1195.54 361.4,-1184.95 354.86,-1187.46"/>
<text text-anchor="middle" x="510.81" y="-1166.8" font-family="Times,serif" font-size="14.00">from_operations_to_define_events_and_laws</text>
</g>
<!-- build_completed_known_sm -->
<g id="node23" class="node">
<title>build_completed_known_sm</title>
<path fill="white" stroke="black" d="M254.31,-1058C254.31,-1058 63.31,-1058 63.31,-1058 57.31,-1058 51.31,-1052 51.31,-1046 51.31,-1046 51.31,-1034 51.31,-1034 51.31,-1028 57.31,-1022 63.31,-1022 63.31,-1022 254.31,-1022 254.31,-1022 260.31,-1022 266.31,-1028 266.31,-1034 266.31,-1034 266.31,-1046 266.31,-1046 266.31,-1052 260.31,-1058 254.31,-1058"/>
<text text-anchor="start" x="59.31" y="-1036.3" font-family="Times,serif" font-size="14.00">build_completed_known_sm</text>
</g>
<!-- build_operations&#45;&gt;build_completed_known_sm -->
<g id="edge59" class="edge">
<title>build_operations&#45;&gt;build_completed_known_sm</title>
<path fill="none" stroke="black" d="M228.28,-1118.97C192.17,-1113.67 152.89,-1104.87 141.81,-1091 136.33,-1084.13 137.34,-1075.39 140.75,-1067.14"/>
<polygon fill="black" stroke="black" points="143.9,-1068.66 145.4,-1058.17 137.69,-1065.44 143.9,-1068.66"/>
<text text-anchor="middle" x="255.81" y="-1079.8" font-family="Times,serif" font-size="14.00">complete_build_with_known_sm</text>
</g>
<!-- build_completed_unknown_sm -->
<g id="node24" class="node">
<title>build_completed_unknown_sm</title>
<path fill="white" stroke="black" d="M263.31,-971C263.31,-971 54.31,-971 54.31,-971 48.31,-971 42.31,-965 42.31,-959 42.31,-959 42.31,-947 42.31,-947 42.31,-941 48.31,-935 54.31,-935 54.31,-935 263.31,-935 263.31,-935 269.31,-935 275.31,-941 275.31,-947 275.31,-947 275.31,-959 275.31,-959 275.31,-965 269.31,-971 263.31,-971"/>
<text text-anchor="start" x="50.31" y="-949.3" font-family="Times,serif" font-size="14.00">build_completed_unknown_sm</text>
</g>
<!-- build_operations&#45;&gt;build_completed_unknown_sm -->
<g id="edge60" class="edge">
<title>build_operations&#45;&gt;build_completed_unknown_sm</title>
<path fill="none" stroke="black" d="M350.77,-1108.99C358.33,-1104.34 365.1,-1098.44 369.81,-1091 391.27,-1057.11 408.89,-1052.01 328.81,-989 320.66,-982.58 304.59,-977.09 285.46,-972.48"/>
<polygon fill="black" stroke="black" points="286.05,-969.02 275.52,-970.22 284.49,-975.85 286.05,-969.02"/>
<text text-anchor="middle" x="511.81" y="-1036.3" font-family="Times,serif" font-size="14.00">complete_build_with_unknown_sm</text>
</g>
<!-- build_functions&#45;&gt;define_resource_types -->
<g id="edge48" class="edge">
<title>build_functions&#45;&gt;define_resource_types</title>
<path fill="none" stroke="black" d="M663.52,-1306.04C711,-1310.45 770.85,-1319.4 787.81,-1337 834.76,-1385.7 810.38,-1428.21 800.81,-1439 787.99,-1453.47 687.56,-1463.12 608.44,-1468.56"/>
<polygon fill="black" stroke="black" points="608.15,-1465.07 598.41,-1469.23 608.62,-1472.05 608.15,-1465.07"/>
<text text-anchor="middle" x="962.31" y="-1384.3" font-family="Times,serif" font-size="14.00">from_functions_to_define_resource_types</text>
</g>
<!-- build_functions&#45;&gt;build_resources -->
<g id="edge47" class="edge">
<title>build_functions&#45;&gt;build_resources</title>
<path fill="none" stroke="black" d="M568.31,-1319.14C558.13,-1324.68 546.92,-1330.95 536.81,-1337 526.34,-1343.27 524.84,-1346.77 513.81,-1352 502.2,-1357.51 489.5,-1362.46 476.98,-1366.78"/>
<polygon fill="black" stroke="black" points="475.85,-1363.47 467.47,-1369.96 478.07,-1370.1 475.85,-1363.47"/>
<text text-anchor="middle" x="660.31" y="-1340.8" font-family="Times,serif" font-size="14.00">from_functions_to_build_resources</text>
</g>
<!-- build_functions&#45;&gt;define_events_and_laws -->
<g id="edge46" class="edge">
<title>build_functions&#45;&gt;define_events_and_laws</title>
<path fill="none" stroke="black" d="M538.29,-1285.71C533.4,-1284.74 528.53,-1283.82 523.81,-1283 492.91,-1277.61 408.1,-1284.86 383.81,-1265 376.95,-1259.39 372.85,-1250.88 370.4,-1242.47"/>
<polygon fill="black" stroke="black" points="373.76,-1241.45 368.16,-1232.46 366.93,-1242.98 373.76,-1241.45"/>
<text text-anchor="middle" x="476.81" y="-1253.8" font-family="Times,serif" font-size="14.00">define_events_and_laws_2</text>
</g>
<!-- build_completed_known_sm&#45;&gt;build_completed_unknown_sm -->
<g id="edge61" class="edge">
<title>build_completed_known_sm&#45;&gt;build_completed_unknown_sm</title>
<path fill="none" stroke="black" d="M158.81,-1021.8C158.81,-1010.16 158.81,-994.55 158.81,-981.24"/>
<polygon fill="black" stroke="black" points="162.31,-981.18 158.81,-971.18 155.31,-981.18 162.31,-981.18"/>
<text text-anchor="middle" x="241.81" y="-992.8" font-family="Times,serif" font-size="14.00">error_found_known_sm</text>
</g>
<!-- finish_build_sm -->
<g id="node25" class="node">
<title>finish_build_sm</title>
<path fill="white" stroke="black" d="M409.81,-884C409.81,-884 307.81,-884 307.81,-884 301.81,-884 295.81,-878 295.81,-872 295.81,-872 295.81,-860 295.81,-860 295.81,-854 301.81,-848 307.81,-848 307.81,-848 409.81,-848 409.81,-848 415.81,-848 421.81,-854 421.81,-860 421.81,-860 421.81,-872 421.81,-872 421.81,-878 415.81,-884 409.81,-884"/>
<text text-anchor="start" x="303.81" y="-862.3" font-family="Times,serif" font-size="14.00">finish_build_sm</text>
</g>
<!-- build_completed_known_sm&#45;&gt;finish_build_sm -->
<g id="edge62" class="edge">
<title>build_completed_known_sm&#45;&gt;finish_build_sm</title>
<path fill="none" stroke="black" d="M266.59,-1026.3C294.22,-1021 318.95,-1013.74 328.81,-1004 357.95,-975.23 361.75,-925.14 360.93,-894.15"/>
<polygon fill="black" stroke="black" points="364.42,-893.89 360.48,-884.06 357.43,-894.2 364.42,-893.89"/>
<text text-anchor="middle" x="460.81" y="-949.3" font-family="Times,serif" font-size="14.00">finish_build_from_known_sm</text>
</g>
<!-- build_completed_unknown_sm&#45;&gt;finish_build_sm -->
<g id="edge63" class="edge">
<title>build_completed_unknown_sm&#45;&gt;finish_build_sm</title>
<path fill="none" stroke="black" d="M134.11,-934.78C122.87,-924.87 113.87,-912.37 122.81,-902 143.57,-877.94 224.25,-870.14 285.54,-867.76"/>
<polygon fill="black" stroke="black" points="285.72,-871.26 295.59,-867.42 285.47,-864.27 285.72,-871.26"/>
<text text-anchor="middle" x="233.81" y="-905.8" font-family="Times,serif" font-size="14.00">finish_build_from_unknown_sm</text>
</g>
<!-- translation -->
<g id="node26" class="node">
<title>translation</title>
<path fill="white" stroke="black" d="M459.31,-797C459.31,-797 388.31,-797 388.31,-797 382.31,-797 376.31,-791 376.31,-785 376.31,-785 376.31,-773 376.31,-773 376.31,-767 382.31,-761 388.31,-761 388.31,-761 459.31,-761 459.31,-761 465.31,-761 471.31,-767 471.31,-773 471.31,-773 471.31,-785 471.31,-785 471.31,-791 465.31,-797 459.31,-797"/>
<text text-anchor="start" x="384.31" y="-775.3" font-family="Times,serif" font-size="14.00">translation</text>
</g>
<!-- finish_build_sm&#45;&gt;translation -->
<g id="edge64" class="edge">
<title>finish_build_sm&#45;&gt;translation</title>
<path fill="none" stroke="black" d="M371.97,-847.8C381.31,-835.59 394,-818.99 404.48,-805.28"/>
<polygon fill="black" stroke="black" points="407.39,-807.25 410.68,-797.18 401.83,-802.99 407.39,-807.25"/>
<text text-anchor="middle" x="455.81" y="-818.8" font-family="Times,serif" font-size="14.00">start_translation</text>
</g>
<!-- success_translation -->
<g id="node27" class="node">
<title>success_translation</title>
<path fill="white" stroke="black" d="M230.81,-710C230.81,-710 98.81,-710 98.81,-710 92.81,-710 86.81,-704 86.81,-698 86.81,-698 86.81,-686 86.81,-686 86.81,-680 92.81,-674 98.81,-674 98.81,-674 230.81,-674 230.81,-674 236.81,-674 242.81,-680 242.81,-686 242.81,-686 242.81,-698 242.81,-698 242.81,-704 236.81,-710 230.81,-710"/>
<text text-anchor="start" x="94.81" y="-688.3" font-family="Times,serif" font-size="14.00">success_translation</text>
</g>
<!-- translation&#45;&gt;success_translation -->
<g id="edge65" class="edge">
<title>translation&#45;&gt;success_translation</title>
<path fill="none" stroke="black" d="M376.26,-778.61C309.44,-778.34 192.88,-773.37 165.81,-743 160.37,-736.89 158.8,-728.51 158.99,-720.35"/>
<polygon fill="black" stroke="black" points="162.48,-720.63 160,-710.33 155.51,-719.92 162.48,-720.63"/>
<text text-anchor="middle" x="245.31" y="-731.8" font-family="Times,serif" font-size="14.00">successful_translation</text>
</g>
<!-- lex_error -->
<g id="node28" class="node">
<title>lex_error</title>
<path fill="white" stroke="black" d="M399.31,-656C399.31,-656 342.31,-656 342.31,-656 336.31,-656 330.31,-650 330.31,-644 330.31,-644 330.31,-632 330.31,-632 330.31,-626 336.31,-620 342.31,-620 342.31,-620 399.31,-620 399.31,-620 405.31,-620 411.31,-626 411.31,-632 411.31,-632 411.31,-644 411.31,-644 411.31,-650 405.31,-656 399.31,-656"/>
<text text-anchor="start" x="338.31" y="-634.3" font-family="Times,serif" font-size="14.00">lex_error</text>
</g>
<!-- translation&#45;&gt;lex_error -->
<g id="edge66" class="edge">
<title>translation&#45;&gt;lex_error</title>
<path fill="none" stroke="black" d="M376.3,-765.93C365.09,-760.75 354.47,-753.4 347.81,-743 332.72,-719.43 343.52,-687.37 354.86,-665.1"/>
<polygon fill="black" stroke="black" points="358,-666.67 359.69,-656.21 351.84,-663.33 358,-666.67"/>
<text text-anchor="middle" x="392.81" y="-731.8" font-family="Times,serif" font-size="14.00">lexical_error</text>
</g>
<!-- syntax_error -->
<g id="node29" class="node">
<title>syntax_error</title>
<path fill="white" stroke="black" d="M544.31,-548C544.31,-548 461.31,-548 461.31,-548 455.31,-548 449.31,-542 449.31,-536 449.31,-536 449.31,-524 449.31,-524 449.31,-518 455.31,-512 461.31,-512 461.31,-512 544.31,-512 544.31,-512 550.31,-512 556.31,-518 556.31,-524 556.31,-524 556.31,-536 556.31,-536 556.31,-542 550.31,-548 544.31,-548"/>
<text text-anchor="start" x="457.31" y="-526.3" font-family="Times,serif" font-size="14.00">syntax_error</text>
</g>
<!-- translation&#45;&gt;syntax_error -->
<g id="edge67" class="edge">
<title>translation&#45;&gt;syntax_error</title>
<path fill="none" stroke="black" d="M431.42,-760.77C433.7,-755.18 436.05,-748.89 437.81,-743 446.77,-713.02 443.43,-704.15 451.81,-674 463.27,-632.84 480.66,-586.47 491.88,-557.99"/>
<polygon fill="black" stroke="black" points="495.27,-558.94 495.72,-548.35 488.77,-556.35 495.27,-558.94"/>
<text text-anchor="middle" x="497.31" y="-688.3" font-family="Times,serif" font-size="14.00">syntax_error</text>
</g>
<!-- semantic_error -->
<g id="node30" class="node">
<title>semantic_error</title>
<path fill="white" stroke="black" d="M635.31,-656C635.31,-656 534.31,-656 534.31,-656 528.31,-656 522.31,-650 522.31,-644 522.31,-644 522.31,-632 522.31,-632 522.31,-626 528.31,-620 534.31,-620 534.31,-620 635.31,-620 635.31,-620 641.31,-620 647.31,-626 647.31,-632 647.31,-632 647.31,-644 647.31,-644 647.31,-650 641.31,-656 635.31,-656"/>
<text text-anchor="start" x="530.31" y="-634.3" font-family="Times,serif" font-size="14.00">semantic_error</text>
</g>
<!-- translation&#45;&gt;semantic_error -->
<g id="edge68" class="edge">
<title>translation&#45;&gt;semantic_error</title>
<path fill="none" stroke="black" d="M468.27,-760.94C493.65,-749.5 524.71,-732.41 546.81,-710 559.18,-697.47 568.57,-680.08 574.93,-665.65"/>
<polygon fill="black" stroke="black" points="578.24,-666.81 578.84,-656.23 571.77,-664.12 578.24,-666.81"/>
<text text-anchor="middle" x="579.31" y="-731.8" font-family="Times,serif" font-size="14.00">semantic_error</text>
</g>
<!-- compilation_error -->
<g id="node31" class="node">
<title>compilation_error</title>
<path fill="white" stroke="black" d="M753.31,-602C753.31,-602 634.31,-602 634.31,-602 628.31,-602 622.31,-596 622.31,-590 622.31,-590 622.31,-578 622.31,-578 622.31,-572 628.31,-566 634.31,-566 634.31,-566 753.31,-566 753.31,-566 759.31,-566 765.31,-572 765.31,-578 765.31,-578 765.31,-590 765.31,-590 765.31,-596 759.31,-602 753.31,-602"/>
<text text-anchor="start" x="630.31" y="-580.3" font-family="Times,serif" font-size="14.00">compilation_error</text>
</g>
<!-- translation&#45;&gt;compilation_error -->
<g id="edge69" class="edge">
<title>translation&#45;&gt;compilation_error</title>
<path fill="none" stroke="black" d="M471.73,-775.75C526.95,-772.22 613.26,-763.52 637.81,-743 676.97,-710.27 688.76,-648.25 692.3,-612.41"/>
<polygon fill="black" stroke="black" points="695.81,-612.45 693.16,-602.2 688.83,-611.87 695.81,-612.45"/>
<text text-anchor="middle" x="743.31" y="-688.3" font-family="Times,serif" font-size="14.00">compilation_error</text>
</g>
<!-- simulation_experiment -->
<g id="node32" class="node">
<title>simulation_experiment</title>
<path fill="white" stroke="black" d="M242.81,-602C242.81,-602 86.81,-602 86.81,-602 80.81,-602 74.81,-596 74.81,-590 74.81,-590 74.81,-578 74.81,-578 74.81,-572 80.81,-566 86.81,-566 86.81,-566 242.81,-566 242.81,-566 248.81,-566 254.81,-572 254.81,-578 254.81,-578 254.81,-590 254.81,-590 254.81,-596 248.81,-602 242.81,-602"/>
<text text-anchor="start" x="82.81" y="-580.3" font-family="Times,serif" font-size="14.00">simulation_experiment</text>
</g>
<!-- success_translation&#45;&gt;simulation_experiment -->
<g id="edge74" class="edge">
<title>success_translation&#45;&gt;simulation_experiment</title>
<path fill="none" stroke="black" d="M164.81,-673.97C164.81,-657.38 164.81,-631.88 164.81,-612.43"/>
<polygon fill="black" stroke="black" points="168.31,-612.34 164.81,-602.34 161.31,-612.34 168.31,-612.34"/>
<text text-anchor="middle" x="226.81" y="-634.3" font-family="Times,serif" font-size="14.00">start_experiment</text>
</g>
<!-- lex_error&#45;&gt;load_sm -->
<g id="edge70" class="edge">
<title>lex_error&#45;&gt;load_sm</title>
<path fill="none" stroke="black" d="M369.99,-619.73C369.6,-594.13 372.12,-545.53 393.81,-512 430.78,-454.86 456,-448.64 519.81,-425 570.63,-406.17 724.69,-396.14 803.41,-392.13"/>
<polygon fill="black" stroke="black" points="803.73,-395.62 813.54,-391.62 803.38,-388.63 803.73,-395.62"/>
<text text-anchor="middle" x="416.81" y="-526.3" font-family="Times,serif" font-size="14.00">fix_lex</text>
</g>
<!-- syntax_error&#45;&gt;load_sm -->
<g id="edge71" class="edge">
<title>syntax_error&#45;&gt;load_sm</title>
<path fill="none" stroke="black" d="M498.87,-511.98C496.3,-496.55 495.15,-473.87 505.81,-458 525.45,-428.78 543.97,-434.68 577.81,-425 654.85,-402.96 748.1,-394.78 803.27,-391.75"/>
<polygon fill="black" stroke="black" points="803.64,-395.24 813.45,-391.23 803.28,-388.25 803.64,-395.24"/>
<text text-anchor="middle" x="541.81" y="-472.3" font-family="Times,serif" font-size="14.00">fix_syntax</text>
</g>
<!-- semantic_error&#45;&gt;load_sm -->
<g id="edge72" class="edge">
<title>semantic_error&#45;&gt;load_sm</title>
<path fill="none" stroke="black" d="M582.14,-619.85C579.07,-594.4 576.77,-545.99 596.81,-512 640.28,-438.31 742.9,-408.37 803.56,-396.79"/>
<polygon fill="black" stroke="black" points="804.43,-400.19 813.65,-394.96 803.19,-393.3 804.43,-400.19"/>
<text text-anchor="middle" x="641.31" y="-526.3" font-family="Times,serif" font-size="14.00">fix_semantic</text>
</g>
<!-- compilation_error&#45;&gt;load_sm -->
<g id="edge73" class="edge">
<title>compilation_error&#45;&gt;load_sm</title>
<path fill="none" stroke="black" d="M691.22,-565.8C688.27,-539.86 686.54,-490.31 709.81,-458 732.03,-427.16 772.06,-409.72 803.81,-400.25"/>
<polygon fill="black" stroke="black" points="805.11,-403.52 813.79,-397.44 803.22,-396.78 805.11,-403.52"/>
<text text-anchor="middle" x="763.81" y="-472.3" font-family="Times,serif" font-size="14.00">fix_compilation</text>
</g>
<!-- simulation_completed -->
<g id="node33" class="node">
<title>simulation_completed</title>
<path fill="white" stroke="black" d="M276.31,-494C276.31,-494 127.31,-494 127.31,-494 121.31,-494 115.31,-488 115.31,-482 115.31,-482 115.31,-470 115.31,-470 115.31,-464 121.31,-458 127.31,-458 127.31,-458 276.31,-458 276.31,-458 282.31,-458 288.31,-464 288.31,-470 288.31,-470 288.31,-482 288.31,-482 288.31,-488 282.31,-494 276.31,-494"/>
<text text-anchor="start" x="123.31" y="-472.3" font-family="Times,serif" font-size="14.00">simulation_completed</text>
</g>
<!-- simulation_experiment&#45;&gt;simulation_completed -->
<g id="edge75" class="edge">
<title>simulation_experiment&#45;&gt;simulation_completed</title>
<path fill="none" stroke="black" d="M191.86,-565.76C197.5,-560.77 202.68,-554.8 205.81,-548 212.08,-534.42 211.52,-517.8 209.19,-504.05"/>
<polygon fill="black" stroke="black" points="212.6,-503.28 207.15,-494.2 205.75,-504.7 212.6,-503.28"/>
<text text-anchor="middle" x="269.31" y="-526.3" font-family="Times,serif" font-size="14.00">start_simulation</text>
</g>
<!-- simulation_completed&#45;&gt;load_sm -->
<g id="edge77" class="edge">
<title>simulation_completed&#45;&gt;load_sm</title>
<path fill="none" stroke="black" d="M251.76,-457.96C265.33,-452.75 279.85,-446.63 292.81,-440 303.68,-434.45 304.24,-428.86 315.81,-425 338.74,-417.36 676.51,-399.09 803.25,-392.46"/>
<polygon fill="black" stroke="black" points="803.62,-395.94 813.42,-391.92 803.25,-388.95 803.62,-395.94"/>
<text text-anchor="middle" x="349.81" y="-428.8" font-family="Times,serif" font-size="14.00">fix_model</text>
</g>
<!-- simulation_completed&#45;&gt;simulation_experiment -->
<g id="edge76" class="edge">
<title>simulation_completed&#45;&gt;simulation_experiment</title>
<path fill="none" stroke="black" d="M115.06,-492.23C95.62,-497.45 78.91,-504.03 72.81,-512 63.09,-524.71 63.73,-534.83 72.81,-548 76.03,-552.66 79.95,-556.7 84.34,-560.2"/>
<polygon fill="black" stroke="black" points="82.48,-563.17 92.71,-565.95 86.45,-557.4 82.48,-563.17"/>
<text text-anchor="middle" x="137.31" y="-526.3" font-family="Times,serif" font-size="14.00">repeat_simulation</text>
</g>
<!-- finish_work2 -->
<g id="node34" class="node">
<title>finish_work2</title>
<path fill="white" stroke="black" d="M485.31,-407C485.31,-407 402.31,-407 402.31,-407 396.31,-407 390.31,-401 390.31,-395 390.31,-395 390.31,-383 390.31,-383 390.31,-377 396.31,-371 402.31,-371 402.31,-371 485.31,-371 485.31,-371 491.31,-371 497.31,-377 497.31,-383 497.31,-383 497.31,-395 497.31,-395 497.31,-401 491.31,-407 485.31,-407"/>
<text text-anchor="start" x="398.31" y="-385.3" font-family="Times,serif" font-size="14.00">finish_work2</text>
</g>
<!-- simulation_completed&#45;&gt;finish_work2 -->
<g id="edge78" class="edge">
<title>simulation_completed&#45;&gt;finish_work2</title>
<path fill="none" stroke="black" d="M183.02,-457.53C174.26,-447.3 167.42,-434.56 175.81,-425 201.85,-395.34 309.4,-389.55 380.09,-389.06"/>
<polygon fill="black" stroke="black" points="380.25,-392.56 390.23,-389.03 380.22,-385.56 380.25,-392.56"/>
<text text-anchor="middle" x="234.31" y="-428.8" font-family="Times,serif" font-size="14.00">complete_work2</text>
</g>
<!-- finish_work2&#45;&gt;work3 -->
<g id="edge79" class="edge">
<title>finish_work2&#45;&gt;work3</title>
<path fill="none" stroke="black" d="M497.6,-384.56C716.75,-370.56 1539.89,-317.95 1733.06,-305.6"/>
<polygon fill="black" stroke="black" points="1733.32,-309.1 1743.07,-304.96 1732.87,-302.11 1733.32,-309.1"/>
<text text-anchor="middle" x="1231.81" y="-341.8" font-family="Times,serif" font-size="14.00">start_work3</text>
</g>
<!-- work3&#45;&gt;configure_prototype -->
<g id="edge80" class="edge">
<title>work3&#45;&gt;configure_prototype</title>
<path fill="none" stroke="black" d="M1774.29,-283.9C1775.52,-273.01 1778.91,-259.43 1787.81,-251 1798.36,-241.02 1826.12,-233.4 1855.5,-227.85"/>
<polygon fill="black" stroke="black" points="1856.28,-231.27 1865.5,-226.05 1855.04,-224.38 1856.28,-231.27"/>
<text text-anchor="middle" x="1859.81" y="-254.8" font-family="Times,serif" font-size="14.00">configure_prototype</text>
</g>
<!-- configure_prototype&#45;&gt;launch_functioning -->
<g id="edge81" class="edge">
<title>configure_prototype&#45;&gt;launch_functioning</title>
<path fill="none" stroke="black" d="M1979.61,-196.8C2005.73,-183.51 2042.04,-165.02 2070.16,-150.71"/>
<polygon fill="black" stroke="black" points="2072.03,-153.69 2079.35,-146.03 2068.86,-147.45 2072.03,-153.69"/>
<text text-anchor="middle" x="2106.81" y="-167.8" font-family="Times,serif" font-size="14.00">launch_functioning</text>
</g>
<!-- finished -->
<g id="node38" class="node">
<title>finished</title>
<path fill="white" stroke="black" d="M2137.31,-59C2137.31,-59 2088.31,-59 2088.31,-59 2082.31,-59 2076.31,-53 2076.31,-47 2076.31,-47 2076.31,-35 2076.31,-35 2076.31,-29 2082.31,-23 2088.31,-23 2088.31,-23 2137.31,-23 2137.31,-23 2143.31,-23 2149.31,-29 2149.31,-35 2149.31,-35 2149.31,-47 2149.31,-47 2149.31,-53 2143.31,-59 2137.31,-59"/>
<text text-anchor="start" x="2084.31" y="-37.3" font-family="Times,serif" font-size="14.00">finished</text>
</g>
<!-- launch_functioning&#45;&gt;finished -->
<g id="edge82" class="edge">
<title>launch_functioning&#45;&gt;finished</title>
<path fill="none" stroke="black" d="M2112.81,-109.8C2112.81,-98.16 2112.81,-82.55 2112.81,-69.24"/>
<polygon fill="black" stroke="black" points="2116.31,-69.18 2112.81,-59.18 2109.31,-69.18 2116.31,-69.18"/>
<text text-anchor="middle" x="2171.31" y="-80.8" font-family="Times,serif" font-size="14.00">complete_work3</text>
</g>
</g>
</svg>
